<?xml version="1.0" encoding="UTF-8"?>
<!DOCTYPE svg PUBLIC "-//W3C//DTD SVG 1.1//EN" "http://www.w3.org/Graphics/SVG/1.1/DTD/svg11.dtd">
<!-- Creator: CorelDRAW 2019 -->
<svg xmlns="http://www.w3.org/2000/svg" xml:space="preserve" width="55.121mm" height="21.1672mm" version="1.1" style="shape-rendering:geometricPrecision; text-rendering:geometricPrecision; image-rendering:optimizeQuality; fill-rule:evenodd; clip-rule:evenodd"
viewBox="0 0 1040.3 399.49"
 xmlns:xlink="http://www.w3.org/1999/xlink"
 xmlns:xodm="http://www.corel.com/coreldraw/odm/2003">
 <defs>
  <style type="text/css">
   <![CDATA[
    .fil0 {fill:#0086C5}
    .fil1 {fill:#18333F}
    .fil2 {fill:#333333}
   ]]>
  </style>
 </defs>
 <g id="Layer_x0020_1">
  <metadata id="CorelCorpID_0Corel-Layer"/>
  <g id="_611807752">
   <path class="fil0" d="M883.98 278.65l0 0c0,-13.97 9.54,-26.11 23.16,-29.5 41.55,-10.41 72.43,-48.06 72.43,-92.74 0,-44.68 -30.88,-82.41 -72.43,-92.74 -13.53,-3.38 -23.16,-15.53 -23.16,-29.5l0 0c0,-19.61 18.3,-34.27 37.39,-29.58 68.18,16.83 118.93,78.51 118.93,151.81 0,73.3 -50.75,134.99 -118.93,151.81 -19.08,4.6 -37.39,-9.98 -37.39,-29.58z"/>
   <path class="fil1" d="M533.68 0.43l0 60.73 -263.72 203.52 -0.52 0.35c-0.69,0.43 -16.31,11.89 -36.96,23.25 -29.49,16.22 -55.09,24.47 -75.91,24.47l-0.26 -0 0 0c-86.23,0 -156.32,-70.18 -156.32,-156.33 0,-86.14 70.18,-156.41 156.32,-156.41 42.77,0 82.15,16.4 110.87,46.24l20.73 21.43 -102.63 81.55c-11.45,9.11 -27.93,8.16 -38.26,-2.17 -5.64,-5.64 -8.42,-13.01 -8.42,-20.39 0,-9.2 4.34,-18.3 12.75,-23.94l47.88 -32.1c-12.92,-6.42 -27.5,-9.8 -42.85,-9.8 -52.74,0 -95.6,42.94 -95.6,95.6 0,52.74 42.85,95.6 95.6,95.6l0 0c18.74,0.26 56.65,-20.91 76.77,-35.57l201.17 -155.28 -74 0c-16.74,0 -30.36,-13.62 -30.36,-30.36 0,-8.42 3.38,-15.96 8.94,-21.51 5.46,-5.47 13.1,-8.94 21.51,-8.94l173.24 0 0 0.09z"/>
   <path class="fil1" d="M503.32 310.31l-142.96 0c-16.74,0 -30.36,-13.62 -30.36,-30.36l0 0c0,-16.74 13.62,-30.36 30.36,-30.36l142.96 0c16.74,0 30.36,13.62 30.36,30.36l0 0c0,16.83 -13.62,30.36 -30.36,30.36z"/>
   <path class="fil0" d="M606.12 310.31l0 0c-16.74,0 -30.36,-13.62 -30.36,-30.36l-0 -248.28c0,-16.74 13.62,-30.36 30.36,-30.36l0 0c16.74,0 30.36,13.62 30.36,30.36l0 248.28c0,16.83 -13.62,30.36 -30.36,30.36z"/>
   <path class="fil0" d="M708.83 310.31l0 0c-16.74,0 -30.36,-13.62 -30.36,-30.36l0 -248.28c0,-16.74 13.62,-30.36 30.36,-30.36l0 0c16.74,0 30.36,13.62 30.36,30.36l0 248.28c0,16.83 -13.62,30.36 -30.36,30.36z"/>
   <path class="fil0" d="M811.54 310.31l0 0c-16.74,0 -30.36,-13.62 -30.36,-30.36l0 -248.28c0,-16.74 13.62,-30.36 30.36,-30.36l0 0c16.74,0 30.36,13.62 30.36,30.36l0 248.28c0,16.83 -13.62,30.36 -30.36,30.36z"/>
   <g>
    <path class="fil2" d="M33.14 383.01c0.78,4.51 3.99,6.25 8.85,6.25 4.51,0 6.68,-1.65 6.68,-4.51 0,-3.38 -2.34,-4.6 -10.32,-6.51 -15.09,-3.64 -18.13,-9.11 -18.13,-16.05 0,-8.59 6.25,-15.79 20.56,-15.79 14.75,0 20.82,7.46 21.51,15.53l-14.49 0c-0.43,-2.69 -1.73,-5.55 -7.11,-5.55 -3.38,0 -5.55,1.22 -5.55,4.08 0,2.69 1.91,3.82 9.8,5.72 15.79,3.99 18.83,9.54 18.83,16.92 0,9.54 -7.37,16.22 -22.38,16.22 -14.14,0 -21.69,-6.51 -22.73,-16.48l14.49 0 0 0.17z"/>
    <path class="fil2" d="M191.37 372.94c0,14.49 -8.76,26.54 -26.2,26.54 -17.18,0 -25.5,-11.97 -25.5,-26.46 0,-14.75 9.11,-26.55 26.28,-26.55 16.13,0 25.42,11.19 25.42,26.46zm-36.26 -0.18c0,9.37 3.12,15.96 10.5,15.96 7.81,0 10.32,-6.94 10.32,-15.7 0,-9.28 -2.69,-15.79 -10.5,-15.79 -7.2,0 -10.32,5.98 -10.32,15.53z"/>
    <polygon class="fil2" points="270.23,347.44 285.23,347.44 285.23,387.52 309.35,387.52 307.7,398.53 270.23,398.53 "/>
    <path class="fil2" d="M400.26 347.44l0 31.49c0,7.37 3.56,9.8 8.16,9.8 4.94,0 7.81,-3.03 7.81,-9.8l0 -31.49 15.01 0 0 29.84c0,17 -10.06,22.12 -23.07,22.12 -13.53,0 -22.9,-5.47 -22.9,-22.12l0 -30.02 15.01 0 0 0.17z"/>
    <polygon class="fil2" points="521.89,358.46 507.31,358.46 507.31,347.44 551.38,347.44 551.38,358.46 536.89,358.46 536.89,398.53 521.89,398.53 "/>
    <polygon class="fil2" points="643.07,347.44 643.07,398.53 628.07,398.53 628.07,347.44 "/>
    <path class="fil2" d="M773.55 372.94c0,14.49 -8.76,26.54 -26.2,26.54 -17.18,0 -25.51,-11.97 -25.51,-26.46 0,-14.75 9.11,-26.55 26.29,-26.55 15.96,0 25.42,11.19 25.42,26.46zm-36.26 -0.18c0,9.37 3.12,15.96 10.5,15.96 7.81,0 10.32,-6.94 10.32,-15.7 0,-9.28 -2.69,-15.79 -10.5,-15.79 -7.37,0 -10.32,5.98 -10.32,15.53z"/>
    <path class="fil2" d="M852.31 398.53l0 -51.1 17.87 0c5.29,11.45 13.18,27.15 15.27,33.4l0.26 0c-0.52,-5.29 -0.69,-14.31 -0.69,-22.47l0 -10.93 13.62 0 0 51.1 -17 0c-4.34,-9.28 -13.62,-28.45 -15.96,-35.13l-0.17 0c0.43,4.77 0.52,14.75 0.52,23.68l0 11.45 -13.71 0z"/>
    <path class="fil2" d="M990.94 383.01c0.78,4.51 3.99,6.25 8.85,6.25 4.51,0 6.68,-1.65 6.68,-4.51 0,-3.38 -2.34,-4.6 -10.32,-6.51 -15.09,-3.64 -18.13,-9.11 -18.13,-16.05 0,-8.59 6.25,-15.79 20.56,-15.79 14.75,0 20.82,7.46 21.52,15.53l-14.49 0c-0.43,-2.69 -1.73,-5.55 -7.11,-5.55 -3.38,0 -5.55,1.22 -5.55,4.08 0,2.69 1.91,3.82 9.8,5.72 15.79,3.99 18.82,9.54 18.82,16.92 0,9.54 -7.37,16.22 -22.38,16.22 -14.14,0 -21.69,-6.51 -22.73,-16.48l14.49 0 0 0.17z"/>
   </g>
  </g>
 </g>
</svg>
