<?xml version="1.0" encoding="UTF-8"?>
<!DOCTYPE svg PUBLIC "-//W3C//DTD SVG 1.1//EN" "http://www.w3.org/Graphics/SVG/1.1/DTD/svg11.dtd">
<!-- Creator: CorelDRAW 2019 -->
<svg xmlns="http://www.w3.org/2000/svg" xml:space="preserve" width="3.7098mm" height="2.1739mm" version="1.1" style="shape-rendering:geometricPrecision; text-rendering:geometricPrecision; image-rendering:optimizeQuality; fill-rule:evenodd; clip-rule:evenodd"
viewBox="0 0 4.28 2.51"
 xmlns:xlink="http://www.w3.org/1999/xlink"
 xmlns:xodm="http://www.corel.com/coreldraw/odm/2003">
 <defs>
  <style type="text/css">
   <![CDATA[
    .fil0 {fill:#0086C5}
   ]]>
  </style>
 </defs>
 <g id="Layer_x0020_1">
  <metadata id="CorelCorpID_0Corel-Layer"/>
  <g id="_659129168">
   <g>
    <path class="fil0" d="M4.28 0l0 0.49 -2.11 1.63 -0 0c-0.01,0 -0.13,0.1 -0.3,0.19 -0.24,0.13 -0.44,0.2 -0.61,0.2l-0 0 0 0c-0.69,0 -1.25,-0.56 -1.25,-1.25 0,-0.69 0.56,-1.25 1.25,-1.25 0.34,0 0.66,0.13 0.89,0.37l0.17 0.17 -0.82 0.65c-0.09,0.07 -0.22,0.07 -0.31,-0.02 -0.05,-0.05 -0.07,-0.1 -0.07,-0.16 0,-0.07 0.03,-0.15 0.1,-0.19l0.38 -0.26c-0.1,-0.05 -0.22,-0.08 -0.34,-0.08 -0.42,0 -0.77,0.34 -0.77,0.77 0,0.42 0.34,0.77 0.77,0.77l0 0c0.15,0 0.45,-0.17 0.62,-0.29l1.61 -1.25 -0.59 0c-0.13,0 -0.24,-0.11 -0.24,-0.24 0,-0.07 0.03,-0.13 0.07,-0.17 0.04,-0.04 0.11,-0.07 0.17,-0.07l1.39 0 0 0z"/>
   </g>
   <g>
    <path class="fil0" d="M4.04 2.49l-1.15 0c-0.13,0 -0.24,-0.11 -0.24,-0.24l0 0c0,-0.13 0.11,-0.24 0.24,-0.24l1.15 0c0.13,0 0.24,0.11 0.24,0.24l0 0c0,0.13 -0.11,0.24 -0.24,0.24z"/>
   </g>
  </g>
 </g>
</svg>
