
<svg version="1.1" id="Layer_1" xmlns="http://www.w3.org/2000/svg" xmlns:xlink="http://www.w3.org/1999/xlink" x="0px" y="0px"
	 viewBox="0 0 321.6 79.9" style="enable-background:new 0 0 321.6 79.9;" xml:space="preserve">
<style type="text/css">
	.st0{fill:#404040;}
	.st1{fill:#029DB3;}
	.st2{fill:#0097D9;}
</style>
<g>
	<g>
		<g>
			<path class="st0" d="M121,46.5h-14.5c0.2,2.7,2.7,4.7,5.4,4.7c2.4,0,4-1,5.1-2.5l3.2,2.5c-1.9,2.5-4.6,3.8-8.2,3.8
				c-5.9,0-10.3-3.8-10.3-10s4.3-10.2,10.1-10.2c5.3,0,9.2,3.5,9.2,10.3C121.1,45.7,121.1,46.1,121,46.5z M116.3,43.1
				c0-2.5-1.4-4.6-4.5-4.6c-2.8,0-5.1,1.9-5.3,4.6H116.3z"/>
			<path class="st0" d="M146.2,33c-1.5-2-4.1-2.9-6.4-2.9c-5.8,0-9.7,4.5-9.7,10.3c0,6.1,3.7,10.4,9.5,10.4c3,0,5.4-1.3,6.8-3.3
				l4,2.8c-2.5,3.1-6.1,4.9-10.9,4.9c-8.8,0-15-6.1-15-14.9c0-9,6.6-14.7,15.3-14.7c3.7,0,8,1.4,10.2,4.3L146.2,33z"/>
			<path class="st0" d="M153.4,24.5h4.8v30.1h-4.8V24.5z"/>
			<path class="st0" d="M166.5,26.1c1.7,0,3.1,1.2,3.1,2.9s-1.4,2.9-3.1,2.9c-1.8,0-3-1.4-3-2.9C163.4,27.5,164.7,26.1,166.5,26.1z
				 M164.1,35.5h4.8v19.1h-4.8V35.5z"/>
			<path class="st0" d="M174.7,35.5h4.5v3.1h0.1c0.8-1.9,3.1-3.6,5.9-3.6c5,0,7,3.8,7,7.7v11.9h-4.8V44c0-2.3-0.5-5.1-3.6-5.1
				c-3,0-4.5,2.6-4.5,5.2v10.5h-4.6L174.7,35.5L174.7,35.5z"/>
			<path class="st0" d="M200.3,26.1c1.7,0,3.1,1.2,3.1,2.9s-1.4,2.9-3.1,2.9c-1.8,0-3-1.4-3-2.9C197.2,27.5,198.5,26.1,200.3,26.1z
				 M197.9,35.5h4.8v19.1h-4.8V35.5z"/>
			<path class="st0" d="M221.5,40.8c-0.8-1.1-2.4-1.9-3.9-1.9c-3.5,0-5.3,3.1-5.3,6.1s1.8,6.1,5.4,6.1c1.5,0,3.1-0.6,4-1.7l3,3
				c-1.6,1.7-4.2,2.7-7,2.7c-5.6,0-10.3-3.7-10.3-10.1c0-6.2,4.6-10.1,10.2-10.1c2.8,0,5.7,1.1,7.2,3L221.5,40.8z"/>
			<path class="st0" d="M238.4,40.6c-0.8-1.1-2.4-2.1-4.2-2.1c-1.5,0-3.1,0.6-3.1,2.1s1.5,1.9,4.1,2.5c2.8,0.7,6.2,1.9,6.2,5.7
				c0,4.7-3.8,6.4-8,6.4c-2.9,0-6-1.1-7.8-3.1l3.1-2.9c1,1.4,2.8,2.4,4.9,2.4c1.4,0,3.1-0.6,3.1-2.3c0-1.6-1.5-2.1-4.4-2.7
				c-2.8-0.7-5.6-1.8-5.6-5.4c0-4.3,3.8-6.1,7.6-6.1c2.7,0,5.6,1,7.2,2.9L238.4,40.6z"/>
		</g>
		<g>
			<path class="st0" d="M245.7,44.1V26.4h2.9v17.3c0,4.5,1.9,9,7.7,9c5.8,0,7.7-4.5,7.7-9V26.4h2.9v17.7c0,4.7-2.1,11.2-10.5,11.2
				C247.9,55.3,245.7,48.8,245.7,44.1z"/>
			<path class="st0" d="M287.8,31c-1.2-1.7-3.1-2.8-5.8-2.8c-2.8,0-6,1.7-6,5.3s3,4.5,6.1,5.5c4,1.3,8.4,2.6,8.4,8.2
				c0,5.6-4.7,8.1-9.2,8.1c-3.4,0-6.8-1.4-8.9-4.2l2.5-1.8c1.2,2,3.5,3.5,6.4,3.5s6.2-1.8,6.2-5.4c0-3.9-3.3-4.9-6.9-6
				c-3.7-1.2-7.6-2.8-7.6-7.9c0-5.4,4.9-7.8,9-7.8c3.8,0,6.6,1.6,8,3.4L287.8,31z"/>
			<path class="st0" d="M296.4,54.6h-3.1l12.2-28.2h2.8l12.1,28.2h-3.2l-3.1-7.4h-14.6L296.4,54.6z M300.5,44.6h12.4l-6.2-15
				L300.5,44.6z"/>
		</g>
	</g>
	<g>
		<path class="st1" d="M61.5,3.2c4.4-1.4,9-2.2,13.6-1.6c3.5,0.3,6.9,1.7,9.5,4.1c2.8,2.5,4.3,6.1,5,9.7c0.7,4.8,0.1,9.8-1.2,14.5
			c-2.7,9.4-7.8,17.8-13.7,25.5c-2.9,3.6-6,7.2-9.3,10.4c-2,1.9-4.2,3.8-7.1,4.2c-2.2,0.3-4.2-1.2-5.2-3c-2.2-3.6-1.8-7.9-1.9-11.9
			c0.1-3.4-0.1-6.9-1.6-10c1.8,0.1,3.7,0.4,5.2,1.5c2.6,2,2.9,5.5,3.7,8.4c0.2,1.3,1.6,2.8,3,1.9c2.6-1.6,4.2-4.4,5.8-6.9
			c2.3-3.8,4.4-7.8,6.1-11.9c1.4-3.4,2.2-7,2.3-10.7c0.1-2.7,0-5.5-0.9-8.1c-1.1-3.6-3.7-6.5-6.9-8.3c-5-3-11.2-3.5-17-3.4
			C54.3,5.8,57.9,4.3,61.5,3.2z"/>
		<path class="st2" d="M15.6,5.7c4.3-3,9.8-3.6,14.9-2.8c5.6,1.2,10.6,4.2,15.9,6.3c4.8,2.1,10,3.6,15.3,3.7
			c-3.2,1.9-7,2.2-10.6,1.9c-4.7-0.1-9.1-2-13.7-2.4c-2.1-0.1-4.3,0.2-6.3,1.1c-4,1.9-7.5,5.2-8.9,9.5c-1.5,4.3-0.9,9.1,0.3,13.4
			c-5.4-0.1-7.8-0.2-12-0.2c-1.8-5-3.3-10.3-2.9-15.7C8,14.7,10.9,9,15.6,5.7z M25.1,43.2c1.9,4.3,4.5,8.3,7.1,12.2
			c6,8.4,12.8,16.2,20.5,23.1c-3.2-1.7-6.1-3.6-9.1-5.5c-10.2-6.8-20.3-14.3-26.8-24.7c-1.1-1.7-1.7-2.3-3.2-5.2
			C18.3,43.1,20.4,43.1,25.1,43.2z"/>
		<path class="st0" d="M47.6,17.5c0.5-1.8,3.5-1.9,4,0c1.4,5.7,2.6,11.5,3.9,17.2c2.2-0.1,4.4-0.1,6.5-0.1c0.6-1,1.6-1.9,2.8-2.1
			c2-0.5,4.3,0.7,4.9,2.7c0.9,2.1-0.4,4.7-2.5,5.4c-1.9,0.7-4.1-0.1-5.1-1.8c-2.8,0.1-5.6,0.1-8.4,0.2c-1,0-1.8-0.8-2-1.7
			c-0.7-3.2-1.2-6.4-2.1-9.4c-1.6,7-3.2,14-4.8,20.9c-0.3,0.9-0.2,2-1,2.7c-0.7,0.9-2.3,0.9-3.1,0c-0.6-0.6-0.8-1.6-1.1-2.3
			c-2-5.5-4.1-10.9-6.1-16.3c-0.9,2.3-1.8,4.5-2.7,6.8c-0.3,0.8-0.6,1.8-1.5,2.1c-1.3,0.3-2.9,0.1-4.3,0.1c-3.2,0-8.1-0.1-11.5-0.1
			c-3.4,0-6.8-0.2-10.2-0.2c-1.2,0-2.1-1.1-2.1-2.2c0.1-1,0.9-2,2-2c7.9,0,15.8,0.2,23.7,0.2c1.6-3.8,3.1-7.7,4.6-11.6
			c0.6-1.5,3.1-1.7,3.8-0.1c2.3,5.5,4.2,11.2,6.5,16.7C43.7,34.3,45.7,25.9,47.6,17.5z"/>
	</g>
</g>
</svg>
