<?xml version="1.0" encoding="UTF-8"?>
<!DOCTYPE svg PUBLIC "-//W3C//DTD SVG 1.1//EN" "http://www.w3.org/Graphics/SVG/1.1/DTD/svg11.dtd">
<!-- Creator: CorelDRAW 2019 -->
<svg xmlns="http://www.w3.org/2000/svg" xml:space="preserve" width="55.1212mm" height="21.167mm" version="1.1" style="shape-rendering:geometricPrecision; text-rendering:geometricPrecision; image-rendering:optimizeQuality; fill-rule:evenodd; clip-rule:evenodd"
viewBox="0 0 1040.31 399.49"
 xmlns:xlink="http://www.w3.org/1999/xlink"
 xmlns:xodm="http://www.corel.com/coreldraw/odm/2003">
 <defs>
  <style type="text/css">
   <![CDATA[
    .fil0 {fill:white}
   ]]>
  </style>
 </defs>
 <g id="Layer_x0020_1">
  <metadata id="CorelCorpID_0Corel-Layer"/>
  <g id="_1048351800">
   <g>
    <path class="fil0" d="M883.99 278.64l0 0c0,-13.97 9.54,-26.11 23.16,-29.49 41.55,-10.41 72.44,-48.06 72.44,-92.74 0,-44.68 -30.88,-82.41 -72.44,-92.74 -13.53,-3.38 -23.16,-15.53 -23.16,-29.49l0 0c0,-19.61 18.31,-34.27 37.39,-29.58 68.19,16.83 118.93,78.51 118.93,151.81 0,73.31 -50.75,134.98 -118.93,151.81 -19.08,4.6 -37.39,-9.98 -37.39,-29.58z"/>
   </g>
   <g>
    <path class="fil0" d="M533.69 0.43l0 60.73 -263.72 203.52 -0.52 0.35c-0.69,0.43 -16.31,11.88 -36.96,23.25 -29.49,16.22 -55.09,24.47 -75.91,24.47l-0.26 -0 0 0c-86.23,0 -156.32,-70.18 -156.32,-156.32 0,-86.14 70.18,-156.41 156.32,-156.41 42.77,0 82.15,16.4 110.87,46.24l20.73 21.43 -102.63 81.55c-11.45,9.11 -27.93,8.16 -38.26,-2.17 -5.64,-5.64 -8.41,-13.01 -8.41,-20.39 0,-9.19 4.34,-18.31 12.75,-23.94l47.88 -32.1c-12.92,-6.42 -27.5,-9.8 -42.85,-9.8 -52.74,0 -95.6,42.94 -95.6,95.6 0,52.74 42.86,95.6 95.6,95.6l0 0c18.74,0.26 56.65,-20.91 76.77,-35.57l201.17 -155.28 -74 0c-16.74,0 -30.36,-13.62 -30.36,-30.36 0,-8.41 3.38,-15.96 8.93,-21.51 5.47,-5.47 13.1,-8.93 21.51,-8.93l173.24 -0 0 0.09z"/>
   </g>
   <g>
    <path class="fil0" d="M503.33 310.31l-142.97 0c-16.74,0 -30.36,-13.62 -30.36,-30.36l0 0c0,-16.74 13.62,-30.36 30.36,-30.36l142.97 0c16.74,0 30.36,13.62 30.36,30.36l0 0c0,16.83 -13.62,30.36 -30.36,30.36z"/>
   </g>
   <g>
    <path class="fil0" d="M606.12 310.31l0 0c-16.74,0 -30.36,-13.62 -30.36,-30.36l-0 -248.28c0,-16.74 13.62,-30.36 30.36,-30.36l0 0c16.74,0 30.36,13.62 30.36,30.36l0 248.28c0,16.83 -13.62,30.36 -30.36,30.36z"/>
   </g>
   <g>
    <path class="fil0" d="M708.84 310.31l0 0c-16.74,0 -30.36,-13.62 -30.36,-30.36l0 -248.28c0,-16.74 13.62,-30.36 30.36,-30.36l0 0c16.74,0 30.36,13.62 30.36,30.36l0 248.28c0,16.83 -13.62,30.36 -30.36,30.36z"/>
   </g>
   <g>
    <path class="fil0" d="M811.55 310.31l0 0c-16.74,0 -30.36,-13.62 -30.36,-30.36l0 -248.28c0,-16.74 13.62,-30.36 30.36,-30.36l0 0c16.74,0 30.36,13.62 30.36,30.36l0 248.28c0,16.83 -13.62,30.36 -30.36,30.36z"/>
   </g>
   <g>
    <g>
     <path class="fil0" d="M33.14 383c0.78,4.51 3.99,6.25 8.85,6.25 4.51,0 6.68,-1.65 6.68,-4.51 0,-3.38 -2.34,-4.6 -10.32,-6.51 -15.09,-3.64 -18.13,-9.11 -18.13,-16.05 0,-8.59 6.25,-15.79 20.56,-15.79 14.75,0 20.82,7.46 21.52,15.53l-14.49 0c-0.43,-2.69 -1.74,-5.55 -7.11,-5.55 -3.38,0 -5.55,1.21 -5.55,4.08 0,2.69 1.91,3.82 9.8,5.73 15.79,3.99 18.82,9.54 18.82,16.92 0,9.54 -7.37,16.22 -22.38,16.22 -14.14,0 -21.69,-6.51 -22.73,-16.48l14.49 0 0 0.17z"/>
     <path class="fil0" d="M191.37 372.94c0,14.49 -8.76,26.55 -26.2,26.55 -17.18,0 -25.51,-11.97 -25.51,-26.46 0,-14.75 9.11,-26.55 26.29,-26.55 16.13,0 25.42,11.19 25.42,26.46zm-36.26 -0.17c0,9.37 3.12,15.96 10.5,15.96 7.81,0 10.32,-6.94 10.32,-15.7 0,-9.28 -2.69,-15.79 -10.5,-15.79 -7.2,0 -10.32,5.99 -10.32,15.53z"/>
     <polygon class="fil0" points="270.23,347.44 285.24,347.44 285.24,387.51 309.35,387.51 307.7,398.53 270.23,398.53 "/>
     <path class="fil0" d="M400.27 347.44l0 31.49c0,7.37 3.56,9.8 8.15,9.8 4.94,0 7.81,-3.04 7.81,-9.8l0 -31.49 15.01 0 0 29.84c0,17 -10.06,22.12 -23.08,22.12 -13.53,0 -22.9,-5.47 -22.9,-22.12l0 -30.02 15.01 0 0 0.17z"/>
     <polygon class="fil0" points="521.89,358.45 507.32,358.45 507.32,347.44 551.39,347.44 551.39,358.45 536.9,358.45 536.9,398.53 521.89,398.53 "/>
     <polygon class="fil0" points="643.08,347.44 643.08,398.53 628.07,398.53 628.07,347.44 "/>
     <path class="fil0" d="M773.55 372.94c0,14.49 -8.76,26.55 -26.2,26.55 -17.18,0 -25.5,-11.97 -25.5,-26.46 0,-14.75 9.11,-26.55 26.28,-26.55 15.96,0 25.42,11.19 25.42,26.46zm-36.26 -0.17c0,9.37 3.12,15.96 10.5,15.96 7.81,0 10.32,-6.94 10.32,-15.7 0,-9.28 -2.69,-15.79 -10.5,-15.79 -7.37,0 -10.32,5.99 -10.32,15.53z"/>
     <path class="fil0" d="M852.32 398.53l0 -51.1 17.87 0c5.29,11.45 13.18,27.15 15.27,33.4l0.26 0c-0.52,-5.29 -0.69,-14.31 -0.69,-22.47l0 -10.93 13.62 0 0 51.1 -17 0c-4.34,-9.28 -13.62,-28.46 -15.96,-35.13l-0.17 0c0.43,4.77 0.52,14.75 0.52,23.68l0 11.45 -13.71 0z"/>
     <path class="fil0" d="M990.95 383c0.78,4.51 3.99,6.25 8.85,6.25 4.51,0 6.68,-1.65 6.68,-4.51 0,-3.38 -2.34,-4.6 -10.32,-6.51 -15.09,-3.64 -18.13,-9.11 -18.13,-16.05 0,-8.59 6.25,-15.79 20.56,-15.79 14.75,0 20.82,7.46 21.51,15.53l-14.49 0c-0.43,-2.69 -1.73,-5.55 -7.11,-5.55 -3.38,0 -5.55,1.21 -5.55,4.08 0,2.69 1.91,3.82 9.8,5.73 15.79,3.99 18.83,9.54 18.83,16.92 0,9.54 -7.37,16.22 -22.38,16.22 -14.14,0 -21.69,-6.51 -22.73,-16.48l14.49 0 0 0.17z"/>
    </g>
   </g>
  </g>
 </g>
</svg>
