<?xml version="1.0" encoding="UTF-8"?>
<!DOCTYPE svg PUBLIC "-//W3C//DTD SVG 1.1//EN" "http://www.w3.org/Graphics/SVG/1.1/DTD/svg11.dtd">
<!-- Creator: CorelDRAW 2019 -->
<svg xmlns="http://www.w3.org/2000/svg" xml:space="preserve" width="22.0486mm" height="8.4668mm" version="1.1" style="shape-rendering:geometricPrecision; text-rendering:geometricPrecision; image-rendering:optimizeQuality; fill-rule:evenodd; clip-rule:evenodd"
viewBox="0 0 136.73 52.5"
 xmlns:xlink="http://www.w3.org/1999/xlink"
 xmlns:xodm="http://www.corel.com/coreldraw/odm/2003">
 <defs>
  <style type="text/css">
   <![CDATA[
    .fil0 {fill:#0086C5}
    .fil1 {fill:#18333F}
    .fil2 {fill:#333333}
   ]]>
  </style>
 </defs>
 <g id="Layer_x0020_1">
  <metadata id="CorelCorpID_0Corel-Layer"/>
  <path class="fil0" d="M116.18 36.62l0 0c0,-1.84 1.25,-3.43 3.04,-3.88 5.46,-1.37 9.52,-6.32 9.52,-12.19 0,-5.87 -4.06,-10.83 -9.52,-12.19 -1.78,-0.44 -3.04,-2.04 -3.04,-3.88l0 0c0,-2.58 2.41,-4.5 4.91,-3.89 8.96,2.21 15.63,10.32 15.63,19.95 0,9.63 -6.67,17.74 -15.63,19.95 -2.51,0.6 -4.91,-1.31 -4.91,-3.89z"/>
  <path class="fil1" d="M70.14 0.06l0 7.98 -34.66 26.75 -0.07 0.05c-0.09,0.06 -2.14,1.56 -4.86,3.06 -3.88,2.13 -7.24,3.22 -9.98,3.22l-0.03 0 0 0c-11.33,0 -20.55,-9.22 -20.55,-20.55 0,-11.32 9.22,-20.56 20.55,-20.56 5.62,0 10.8,2.15 14.57,6.08l2.73 2.82 -13.49 10.72c-1.51,1.2 -3.67,1.07 -5.03,-0.29 -0.74,-0.74 -1.11,-1.71 -1.11,-2.68 0,-1.21 0.57,-2.41 1.68,-3.15l6.29 -4.22c-1.7,-0.84 -3.61,-1.29 -5.63,-1.29 -6.93,0 -12.56,5.64 -12.56,12.56 0,6.93 5.63,12.56 12.56,12.56l0 0c2.46,0.03 7.45,-2.75 10.09,-4.67l26.44 -20.41 -9.73 0c-2.2,0 -3.99,-1.79 -3.99,-3.99 0,-1.11 0.44,-2.1 1.17,-2.83 0.72,-0.72 1.72,-1.17 2.83,-1.17l22.77 0 0 0.01z"/>
  <path class="fil1" d="M66.15 40.78l-18.79 0c-2.2,0 -3.99,-1.79 -3.99,-3.99l0 0c0,-2.2 1.79,-3.99 3.99,-3.99l18.79 0c2.2,0 3.99,1.79 3.99,3.99l0 0c0,2.21 -1.79,3.99 -3.99,3.99z"/>
  <path class="fil0" d="M79.66 40.78l0 0c-2.2,0 -3.99,-1.79 -3.99,-3.99l0 -32.63c0,-2.2 1.79,-3.99 3.99,-3.99l0 0c2.2,0 3.99,1.79 3.99,3.99l0 32.63c0,2.21 -1.79,3.99 -3.99,3.99z"/>
  <path class="fil0" d="M93.16 40.78l0 0c-2.2,0 -3.99,-1.79 -3.99,-3.99l0 -32.63c0,-2.2 1.79,-3.99 3.99,-3.99l0 0c2.2,0 3.99,1.79 3.99,3.99l0 32.63c0,2.21 -1.79,3.99 -3.99,3.99z"/>
  <path class="fil0" d="M106.66 40.78l0 0c-2.2,0 -3.99,-1.79 -3.99,-3.99l0 -32.63c0,-2.2 1.79,-3.99 3.99,-3.99l0 0c2.2,0 3.99,1.79 3.99,3.99l0 32.63c0,2.21 -1.79,3.99 -3.99,3.99z"/>
  <g id="_1042857456">
   <path class="fil2" d="M4.36 50.34c0.1,0.59 0.52,0.82 1.16,0.82 0.59,0 0.88,-0.22 0.88,-0.59 0,-0.44 -0.31,-0.6 -1.36,-0.86 -1.98,-0.48 -2.38,-1.2 -2.38,-2.11 0,-1.13 0.82,-2.07 2.7,-2.07 1.94,0 2.74,0.98 2.83,2.04l-1.9 0c-0.06,-0.35 -0.23,-0.73 -0.93,-0.73 -0.44,0 -0.73,0.16 -0.73,0.54 0,0.35 0.25,0.5 1.29,0.75 2.08,0.52 2.47,1.25 2.47,2.22 0,1.25 -0.97,2.13 -2.94,2.13 -1.86,0 -2.85,-0.86 -2.99,-2.17l1.9 0 0 0.02z"/>
   <path class="fil2" d="M25.15 49.02c0,1.9 -1.15,3.49 -3.44,3.49 -2.26,0 -3.35,-1.57 -3.35,-3.48 0,-1.94 1.2,-3.49 3.45,-3.49 2.12,0 3.34,1.47 3.34,3.48zm-4.77 -0.02c0,1.23 0.41,2.1 1.38,2.1 1.03,0 1.36,-0.91 1.36,-2.06 0,-1.22 -0.35,-2.07 -1.38,-2.07 -0.95,0 -1.36,0.79 -1.36,2.04z"/>
   <polygon class="fil2" points="35.52,45.66 37.49,45.66 37.49,50.93 40.66,50.93 40.44,52.38 35.52,52.38 "/>
   <path class="fil2" d="M52.61 45.66l0 4.14c0,0.97 0.47,1.29 1.07,1.29 0.65,0 1.03,-0.4 1.03,-1.29l0 -4.14 1.97 0 0 3.92c0,2.23 -1.32,2.91 -3.03,2.91 -1.78,0 -3.01,-0.72 -3.01,-2.91l0 -3.94 1.97 -0 0 0.02z"/>
   <polygon class="fil2" points="68.59,47.11 66.68,47.11 66.68,45.66 72.47,45.66 72.47,47.11 70.57,47.11 70.57,52.38 68.59,52.38 "/>
   <polygon class="fil2" points="84.52,45.66 84.52,52.38 82.55,52.38 82.55,45.66 "/>
   <path class="fil2" d="M101.67 49.02c0,1.9 -1.15,3.49 -3.44,3.49 -2.26,0 -3.35,-1.57 -3.35,-3.48 0,-1.94 1.2,-3.49 3.45,-3.49 2.1,0 3.34,1.47 3.34,3.48zm-4.77 -0.02c0,1.23 0.41,2.1 1.38,2.1 1.03,0 1.36,-0.91 1.36,-2.06 0,-1.22 -0.35,-2.07 -1.38,-2.07 -0.97,0 -1.36,0.79 -1.36,2.04z"/>
   <path class="fil2" d="M112.02 52.38l0 -6.72 2.35 0c0.7,1.51 1.73,3.57 2.01,4.39l0.03 0c-0.07,-0.7 -0.09,-1.88 -0.09,-2.95l0 -1.44 1.79 0 0 6.72 -2.23 0c-0.57,-1.22 -1.79,-3.74 -2.1,-4.62l-0.02 0c0.06,0.63 0.07,1.94 0.07,3.11l0 1.51 -1.8 0z"/>
   <path class="fil2" d="M130.24 50.34c0.1,0.59 0.52,0.82 1.16,0.82 0.59,0 0.88,-0.22 0.88,-0.59 0,-0.44 -0.31,-0.6 -1.36,-0.86 -1.98,-0.48 -2.38,-1.2 -2.38,-2.11 0,-1.13 0.82,-2.07 2.7,-2.07 1.94,0 2.74,0.98 2.83,2.04l-1.9 0c-0.06,-0.35 -0.23,-0.73 -0.94,-0.73 -0.44,0 -0.73,0.16 -0.73,0.54 0,0.35 0.25,0.5 1.29,0.75 2.08,0.52 2.47,1.25 2.47,2.22 0,1.25 -0.97,2.13 -2.94,2.13 -1.86,0 -2.85,-0.86 -2.99,-2.17l1.9 0 0 0.02z"/>
  </g>
 </g>
</svg>
